<svg t="1577425328498" class="icon" viewBox="0 0 1024 1024" version="1.1" xmlns="http://www.w3.org/2000/svg" p-id="2379" width="24" height="24" xmlns:xlink="http://www.w3.org/1999/xlink"><defs><style type="text/css"></style></defs><path d="M717.906 360.34c1.239-10.28 0.03-11.489-10.133-11.489-64.563-0.015-129.136-0.01-193.705-0.005-64.327 0.005-128.66 0-192.983 0.01-11.76 0-11.765 0.031-11.765 11.628l0.04 331.361c0 2.432-0.045 4.864 0.098 7.28 1.193 20.158 15.816 34.136 36.009 34.366 10.44 0.108 20.874 0.149 31.314 0 5.468-0.077 8.146 2.248 8.125 7.752-0.123 32.04-0.2 64.077-0.343 96.107-0.102 22.278 8.77 35.364 27.96 39.27 12.616 2.56 25.6 2.156 38.344-0.143 13.737-2.488 26.46-21.125 26.245-33.054-0.604-33.726-0.025-67.477-0.25-101.223-0.047-6.743 2.37-8.893 8.934-8.786 18.688 0.297 37.376 0.093 56.069 0.108 11.484 0.005 12.001 0.466 12.011 11.832 0.036 32.277-0.071 64.563 0.077 96.855 0.087 18.755 11.925 32.907 30.25 35.042 9.784 1.146 19.778 1.873 29.726 0.578 3.896-0.507 7.537-1.46 11.1-3.205 15.191-7.419 20.777-20.378 20.849-36.311 0.143-31.795 0.005-63.59 0.051-95.396 0.01-8.95 0.471-9.339 9.585-9.385 9.948-0.04 19.911 0.215 29.854-0.087 15.842-0.481 33.214-16.522 32.553-31.729-0.542-12.666 0.584-25.18 0.594-37.765 0.092-95.155 0.01-190.31 0.138-285.475 0.01-6.073-1.49-11.997-0.747-18.136z m-399.253-34.795c64.804 0.02 129.608 0.01 194.412 0.02 65.044 0.006 130.089 0.026 195.139-0.01 9.707-0.005 10.46-1.157 7.28-9.984-17.546-48.804-48.174-86.989-92.503-114.079-6.978-4.27-7.567-7.25-3.026-14.177 5.043-7.71 10.107-15.416 15.043-23.188a902.794 902.794 0 0 0 13.752-22.267c2.074-3.512 2.007-6.994-1.787-9.57-3.876-2.641-6.912-1.008-9.492 2.069-1.24 1.485-2.192 3.205-3.303 4.797-10.188 14.761-18.411 30.772-29 45.297-3.025 4.152-5.667 4.997-10.306 2.939-6.64-2.944-13.425-5.79-20.418-7.654-48.226-12.877-95.878-12.212-142.52 7.142-4.332 1.797-7.261 1.08-9.75-3.02-4.648-7.676-9.579-15.182-14.412-22.744-5.617-8.786-11.208-17.587-16.886-26.332-2.33-3.584-5.576-4.618-9.416-2.499-4.075 2.243-4.162 5.56-2.12 9.288 1.28 2.34 2.407 4.777 3.846 7.01 7.992 12.441 16.056 24.831 24.095 37.237 4.92 7.593 4.428 10.706-2.724 14.807-17.792 10.194-33.905 22.43-47.888 37.55-20.736 22.405-36.28 47.847-46.033 76.764-3.349 9.949-2.75 10.604 8.017 10.604z m279.03-86.938c10.302-0.066 21.228 10.476 21.55 20.798 0.338 10.552-10.48 21.903-21.11 22.16-10.926 0.255-21.503-10.051-21.831-21.264-0.297-10.332 10.844-21.622 21.391-21.694z m-172.18 3.088c10.224-0.482 19.425 10.24 19.364 21.401-0.062 11.228-9.206 21.146-19.677 21.33-10.951 0.2-21.17-10.086-21.207-21.345-0.824-13.604 9.82-20.844 21.52-21.386z m409.753 222.361c-0.005-20.367 0.354-40.745-0.184-61.102-0.369-14.223-6.4-25.113-19.958-32.01-10.7-5.443-21.627-4.567-32.676-4.582-23.997-0.026-39.004 15.063-39.034 39.07-0.047 33.465-0.01 66.934-0.01 100.404-0.011 34.196 0.01 68.382-0.026 102.579-0.01 14.238 5.596 24.955 18.16 32.466 11.802 7.05 24.351 5.335 36.813 4.746 3.81-0.18 8.039 1.137 11.382-0.507 16.133-7.951 25.83-19.942 25.666-39.188-0.414-47.279-0.128-94.572-0.133-141.876z m-590.474-97.73c-5.58 0.03-11.162-0.036-16.747 0.01-24.454 0.2-41.795 19.523-39.158 43.945 0.65 6.052 0.89 12.083 0.89 18.145v86.64c0 31.791-0.097 63.581 0.047 95.371 0.061 13.83 6.768 23.547 18.713 30.587 12.304 7.25 25.488 5.75 38.318 4.608 21.694-1.92 34.903-17.408 34.75-39.142-0.092-13.087-1.111-26.169-1.034-39.25 0.338-54.58-1.285-109.184 1.08-163.748 1.03-23.373-21.033-37.233-36.859-37.166z" fill="#ffffff" p-id="2380"></path></svg>