<svg t="1577196200865" class="icon" viewBox="0 0 1024 1024" version="1.1" xmlns="http://www.w3.org/2000/svg" p-id="2589" width="64" height="64"><path d="M768.042667 810.666667H227.882667l-6.826667-0.597334a149.376 149.376 0 0 1-26.026667-292.778666l56.490667-15.488 5.802667-58.282667A256 256 0 0 1 512.042667 213.333333c110.506667 0 205.909333 70.954667 241.066666 172.032a254.549333 254.549333 0 0 0-154.581333 62.976 42.666667 42.666667 0 1 0 56.576 63.872A169.898667 169.898667 0 0 1 768.256 469.333333c21.162667 0 41.258667 4.352 59.946667 11.392 3.754667 1.450667 7.509333 2.858667 11.136 4.565334 5.973333 2.730667 11.605333 5.930667 17.152 9.301333 3.114667 1.92 6.4 3.584 9.386666 5.674667 7.381333 5.205333 14.336 10.965333 20.821334 17.194666 2.645333 2.602667 4.949333 5.461333 7.466666 8.192 4.522667 4.992 8.96 10.112 12.885334 15.616 2.688 3.797333 4.992 7.850667 7.338666 11.861334 2.688 4.48 5.248 9.045333 7.509334 13.781333 2.133333 4.48 4.053333 9.088 5.802666 13.781333 1.792 4.821333 3.242667 9.813333 4.608 14.848 1.322667 4.778667 2.688 9.557333 3.584 14.506667a174.933333 174.933333 0 0 1 2.005334 19.754667c0.170667 3.413333 0.853333 6.741333 0.853333 10.197333a170.666667 170.666667 0 0 1-170.666667 170.666667M1024.256 640c0-13.824-1.408-27.264-3.541333-40.490667-0.128-0.853333-0.213333-1.749333-0.384-2.602666a251.349333 251.349333 0 0 0-9.557334-38.4l-0.298666-0.853334a254.506667 254.506667 0 0 0-36.053334-68.906666 256.896 256.896 0 0 0-55.765333-55.594667l-2.688-2.005333a253.013333 253.013333 0 0 0-31.488-19.029334c-1.408-0.725333-2.858667-1.365333-4.266667-2.048a250.453333 250.453333 0 0 0-34.773333-14.165333 341.418667 341.418667 0 0 0-673.024 39.125333A234.794667 234.794667 0 0 0 0.042667 661.333333c0 122.410667 93.738667 222.933333 213.333333 234.666667h554.666667a255.914667 255.914667 0 0 0 255.914666-254.677333c0.042667-0.469333 0.298667-0.853333 0.298667-1.322667" p-id="2590" fill="#2c2c2c"></path></svg>