<svg t="1577340059436" class="icon" viewBox="0 0 1024 1024" version="1.1" xmlns="http://www.w3.org/2000/svg" p-id="4635" width="64" height="64"><path d="M533.354667 896H255.978667A128.128 128.128 0 0 1 128 768.021333V255.978667A128.128 128.128 0 0 1 255.978667 128h512.042666A128.128 128.128 0 0 1 896 255.978667v341.376a21.333333 21.333333 0 1 1-42.666667 0V255.978667A85.418667 85.418667 0 0 0 768.021333 170.666667H255.978667A85.418667 85.418667 0 0 0 170.666667 255.978667v512.042666A85.418667 85.418667 0 0 0 255.978667 853.333333h277.376a21.333333 21.333333 0 1 1 0 42.666667" fill="#666666" p-id="4636"></path><path d="M714.709333 812.693333l83.050667 43.392-15.872-91.904 67.050667-64.96-92.650667-13.376-41.578667-83.776-41.578666 83.776-92.672 13.376 67.050666 64.96-15.850666 91.904 83.050666-43.392z m-89.173333 88.32c-8 0-15.381333-2.282667-21.632-6.826666-12.48-9.109333-17.706667-25.493333-14.357333-44.928l12.074666-70.122667-51.541333-49.941333c-14.058667-13.653333-19.413333-29.866667-14.656-44.544 4.757333-14.72 18.666667-24.746667 38.144-27.562667l71.317333-10.282667 31.701334-63.893333c8.746667-17.642667 22.634667-27.754667 38.122666-27.754667 15.466667 0 29.376 10.112 38.122667 27.733334l31.701333 63.914666 71.317334 10.304c19.477333 2.773333 33.386667 12.842667 38.122666 27.52 4.757333 14.698667-0.576 30.912-14.656 44.565334l-51.541333 49.92 12.096 70.165333c3.349333 19.392-1.898667 35.754667-14.4 44.864-12.458667 9.066667-29.568 9.109333-46.954667 0.042667l-63.808-33.365334-63.829333 33.365334c-8.682667 4.544-17.322667 6.826667-25.344 6.826666zM725.333333 341.333333H298.666667a21.333333 21.333333 0 1 1 0-42.666666h426.666666a21.333333 21.333333 0 1 1 0 42.666666M469.333333 725.333333h-170.666666a21.333333 21.333333 0 1 1 0-42.666666h170.666666a21.333333 21.333333 0 1 1 0 42.666666M725.333333 533.333333H298.666667a21.333333 21.333333 0 1 1 0-42.666666h426.666666a21.333333 21.333333 0 1 1 0 42.666666" fill="#666666" p-id="4637"></path></svg>